<?xml version="1.0" encoding="utf-8"?>
<!-- Generator: Adobe Illustrator 27.2.0, SVG Export Plug-In . SVG Version: 6.00 Build 0)  -->
<!DOCTYPE svg PUBLIC "-//W3C//DTD SVG 1.1//EN" "http://www.w3.org/Graphics/SVG/1.1/DTD/svg11.dtd" [
	<!ENTITY ns_extend "http://ns.adobe.com/Extensibility/1.0/">
	<!ENTITY ns_ai "http://ns.adobe.com/AdobeIllustrator/10.0/">
	<!ENTITY ns_graphs "http://ns.adobe.com/Graphs/1.0/">
	<!ENTITY ns_vars "http://ns.adobe.com/Variables/1.0/">
	<!ENTITY ns_imrep "http://ns.adobe.com/ImageReplacement/1.0/">
	<!ENTITY ns_sfw "http://ns.adobe.com/SaveForWeb/1.0/">
	<!ENTITY ns_custom "http://ns.adobe.com/GenericCustomNamespace/1.0/">
	<!ENTITY ns_adobe_xpath "http://ns.adobe.com/XPath/1.0/">
]>
<svg version="1.1" id="Capa_1" xmlns:x="&ns_extend;" xmlns:i="&ns_ai;" xmlns:graph="&ns_graphs;"
	 xmlns="http://www.w3.org/2000/svg" xmlns:xlink="http://www.w3.org/1999/xlink" x="0px" y="0px" viewBox="0 0 78 20"
	 style="enable-background:new 0 0 78 20;" xml:space="preserve">
<style type="text/css">
	.st0{display:none;fill-rule:evenodd;clip-rule:evenodd;}
	.st1{fill:#FFFFFF;}
</style>
<metadata>
	<x:xmpmeta  x:xmptk="Adobe XMP Core 9.0-c000 79.f845eb1, 2022/11/03-19:28:45        " xmlns:x="adobe:ns:meta/">
		<rdf:RDF  xmlns:rdf="http://www.w3.org/1999/02/22-rdf-syntax-ns#">
			
				<rdf:Description  rdf:about="" xmlns:dc="http://purl.org/dc/elements/1.1/" xmlns:stDim="http://ns.adobe.com/xap/1.0/sType/Dimensions#" xmlns:xmp="http://ns.adobe.com/xap/1.0/" xmlns:xmpG="http://ns.adobe.com/xap/1.0/g/" xmlns:xmpGImg="http://ns.adobe.com/xap/1.0/g/img/" xmlns:xmpMM="http://ns.adobe.com/xap/1.0/mm/" xmlns:xmpTPg="http://ns.adobe.com/xap/1.0/t/pg/">
				<xmp:CreatorTool>Adobe Illustrator 27.2 (Windows)</xmp:CreatorTool>
				<xmp:CreateDate>2024-10-16T14:20:51-03:00</xmp:CreateDate>
				<xmp:Thumbnails>
					<rdf:Alt>
						<rdf:li  rdf:parseType="Resource">
							<xmpGImg:width>256</xmpGImg:width>
							<xmpGImg:height>68</xmpGImg:height>
							<xmpGImg:format>JPEG</xmpGImg:format>
							<xmpGImg:image>/9j/4AAQSkZJRgABAgEASABIAAD/7QAsUGhvdG9zaG9wIDMuMAA4QklNA+0AAAAAABAASAAAAAEA
AQBIAAAAAQAB/+4ADkFkb2JlAGTAAAAAAf/bAIQABgQEBAUEBgUFBgkGBQYJCwgGBggLDAoKCwoK
DBAMDAwMDAwQDA4PEA8ODBMTFBQTExwbGxscHx8fHx8fHx8fHwEHBwcNDA0YEBAYGhURFRofHx8f
Hx8fHx8fHx8fHx8fHx8fHx8fHx8fHx8fHx8fHx8fHx8fHx8fHx8fHx8fHx8f/8AAEQgARAEAAwER
AAIRAQMRAf/EAaIAAAAHAQEBAQEAAAAAAAAAAAQFAwIGAQAHCAkKCwEAAgIDAQEBAQEAAAAAAAAA
AQACAwQFBgcICQoLEAACAQMDAgQCBgcDBAIGAnMBAgMRBAAFIRIxQVEGE2EicYEUMpGhBxWxQiPB
UtHhMxZi8CRygvElQzRTkqKyY3PCNUQnk6OzNhdUZHTD0uIIJoMJChgZhJRFRqS0VtNVKBry4/PE
1OT0ZXWFlaW1xdXl9WZ2hpamtsbW5vY3R1dnd4eXp7fH1+f3OEhYaHiImKi4yNjo+Ck5SVlpeYmZ
qbnJ2en5KjpKWmp6ipqqusra6voRAAICAQIDBQUEBQYECAMDbQEAAhEDBCESMUEFURNhIgZxgZEy
obHwFMHR4SNCFVJicvEzJDRDghaSUyWiY7LCB3PSNeJEgxdUkwgJChgZJjZFGidkdFU38qOzwygp
0+PzhJSktMTU5PRldYWVpbXF1eX1RlZmdoaWprbG1ub2R1dnd4eXp7fH1+f3OEhYaHiImKi4yNjo
+DlJWWl5iZmpucnZ6fkqOkpaanqKmqq6ytrq+v/aAAwDAQACEQMRAD8A9U4q7FXYq7FXYq7FXYq7
FXYq7FXYq7FXYq7FXYq7FXYq7FXYq7FXYq7FXYq7FXYq7FXYq7FXYq7FXYq7FXYq7FXYq7FXYq7F
XYq7FXYq7FXYq7FXYq7FXYq7FXYq7FXYq7FXYq7FXYq7FXYq7FXYq7FXYq7FXYq7FXYq7FXYq7FX
Yq7FXYq7FXYq7FXYq7FXYq7FXYq7FXYq7FXYq7FXYq7FXYq7FXYq7FXYq7FXYq7FXYq7FXYq7FXY
q7FXYq7FXYq7FXYq7FXYq7FXYq7FXYq7FXYq7FXYq7FXYq7FXYq7FXYq7FXYq7FXYq7FXYq7FXYq
7FXYq7FXYq7FXYq7FXYq7FXYq7FXYq7FXYq7FXYq7FXYq7FXYq7FXYq7FXYq7FXYq7FXYq7FXYq7
FXYq7FXYq7FXYq7FXYq7FXYq7FXYq7FXYq7FXYq7FXYq7FXYq7FXYq7FXYq7FXYq7FXYq7FXYq7F
XYq7FXYq7FXYq7FXYq7FXYq7FXYq7FXYq7FXYq7FXYq7FXYq7FXYq7FXYq7FXYq7FXYq7FXYq7FX
Yq7FXYq7FXYq7FXYq7FXYq7FXYq7FXYq7FXYq7FXYq7FXYq7FXYq7FXYq7FXYq7FXYq7FXYq7FXY
q7FXYq7FXYq7FXYq7FXYq7FXYq7FXYq7FXYq7FXYq7FXYq7FXYq7FXYq7FXYq7FXYq7FXYq7FXYq
7FXYq7FXYq7FXYq7FX//2Q==
								</xmpGImg:image>
						</rdf:li>
					</rdf:Alt>
				</xmp:Thumbnails>
				<xmpTPg:MaxPageSize  rdf:parseType="Resource">
					<stDim:w>78.000000</stDim:w>
					<stDim:h>20.000000</stDim:h>
					<stDim:unit>Pixels</stDim:unit>
				</xmpTPg:MaxPageSize>
				<xmpTPg:NPages>1</xmpTPg:NPages>
				<xmpTPg:HasVisibleTransparency>False</xmpTPg:HasVisibleTransparency>
				<xmpTPg:HasVisibleOverprint>False</xmpTPg:HasVisibleOverprint>
				<xmpTPg:SwatchGroups>
					<rdf:Seq>
						<rdf:li  rdf:parseType="Resource">
							<xmpG:groupName>Grupo de muestras por defecto</xmpG:groupName>
							<xmpG:groupType>0</xmpG:groupType>
						</rdf:li>
					</rdf:Seq>
				</xmpTPg:SwatchGroups>
				<dc:format>image/svg+xml</dc:format>
				<xmpMM:InstanceID>xmp.iid:9f33aeb8-9d92-7946-9cf5-ffe5c1d5cf5b</xmpMM:InstanceID>
			</rdf:Description>
		</rdf:RDF>
	</x:xmpmeta>
	<sfw  xmlns="&ns_sfw;">
		<slices></slices>
		<sliceSourceBounds  bottomLeftOrigin="true" height="20" width="77.1" x="0.5" y="0"></sliceSourceBounds>
		<optimizationSettings>
			<targetSettings  fileFormat="PNG24Format" targetSettingsID="0">
				<PNG24Format  filtered="false" interlaced="false" matteColor="#FFFFFF" noMatteColor="false" transparency="true">
					</PNG24Format>
			</targetSettings>
		</optimizationSettings>
	</sfw>
</metadata>
<path class="st0" d="M7.5,1c0-0.6-0.4-1-1-1c-0.6,0-1,0.4-1,1v3c0,0.3-0.1,0.5-0.3,0.7C5.1,4.9,4.8,5,4.5,5h-3c-0.6,0-1,0.4-1,1
	s0.4,1,1,1h3c0.8,0,1.6-0.3,2.1-0.9S7.5,4.8,7.5,4V1z M15.5,1c0-0.6-0.4-1-1-1c-0.6,0-1,0.4-1,1v3c0,0.8,0.3,1.6,0.9,2.1
	S15.7,7,16.5,7h3c0.6,0,1-0.4,1-1s-0.4-1-1-1h-3c-0.3,0-0.5-0.1-0.7-0.3c-0.2-0.2-0.3-0.4-0.3-0.7V1z M1.5,13c-0.6,0-1,0.4-1,1
	s0.4,1,1,1h3c0.3,0,0.5,0.1,0.7,0.3s0.3,0.4,0.3,0.7v3c0,0.6,0.4,1,1,1c0.6,0,1-0.4,1-1v-3c0-0.8-0.3-1.6-0.9-2.1S5.3,13,4.5,13H1.5
	z M15.8,15.3c0.2-0.2,0.4-0.3,0.7-0.3h3c0.6,0,1-0.4,1-1s-0.4-1-1-1h-3c-0.8,0-1.6,0.3-2.1,0.9s-0.9,1.3-0.9,2.1v3c0,0.6,0.4,1,1,1
	c0.6,0,1-0.4,1-1v-3C15.5,15.7,15.6,15.5,15.8,15.3z M68.3,16.1c-0.9,0-1.7-0.1-2.5-0.3c-0.8-0.2-1.4-0.5-1.9-0.9
	c-0.2-0.1-0.3-0.3-0.4-0.4c-0.1-0.1-0.1-0.3-0.1-0.5c0-0.3,0.1-0.5,0.3-0.7c0.2-0.2,0.4-0.3,0.6-0.3c0.1,0,0.2,0,0.4,0.1
	c0.1,0,0.3,0.1,0.4,0.2c0.5,0.3,1,0.5,1.5,0.7c0.5,0.1,1,0.2,1.6,0.2c0.7,0,1.3-0.1,1.7-0.4c0.4-0.2,0.6-0.6,0.6-1.1
	c0-0.4-0.2-0.6-0.6-0.9c-0.4-0.2-1-0.4-2-0.6c-1.1-0.2-1.9-0.5-2.5-0.8c-0.6-0.3-1.1-0.7-1.4-1.1c-0.3-0.5-0.4-1-0.4-1.6
	c0-0.7,0.2-1.4,0.6-1.9c0.4-0.6,1-1,1.7-1.3c0.7-0.3,1.6-0.5,2.5-0.5c1.6,0,2.9,0.4,4,1.2c0.2,0.1,0.3,0.3,0.4,0.4
	c0.1,0.1,0.1,0.3,0.1,0.5c0,0.3-0.1,0.5-0.3,0.7c-0.2,0.2-0.4,0.3-0.6,0.3c-0.1,0-0.2,0-0.4-0.1c-0.1,0-0.2-0.1-0.4-0.2
	c-0.5-0.3-0.9-0.5-1.3-0.7c-0.4-0.1-0.9-0.2-1.5-0.2c-0.7,0-1.2,0.1-1.6,0.4c-0.4,0.3-0.6,0.6-0.6,1.1c0,0.3,0.1,0.5,0.2,0.7
	c0.2,0.2,0.4,0.3,0.8,0.5c0.4,0.1,0.9,0.3,1.5,0.4c1.5,0.3,2.6,0.8,3.3,1.3c0.7,0.5,1,1.3,1,2.2c0,0.7-0.2,1.4-0.6,1.9
	c-0.4,0.6-1,1-1.7,1.3C70.1,16,69.2,16.1,68.3,16.1z M51,14.4c0.1,0.2,0.1,0.4,0.1,0.5c0,0.3-0.1,0.6-0.4,0.8
	c-0.2,0.2-0.5,0.3-0.9,0.3c-0.2,0-0.4-0.1-0.6-0.2c-0.2-0.1-0.3-0.3-0.4-0.5l-0.9-2h-5.8l-0.9,2c-0.1,0.2-0.2,0.4-0.4,0.5
	c-0.2,0.1-0.4,0.2-0.6,0.2c-0.3,0-0.6-0.1-0.9-0.3c-0.3-0.2-0.4-0.5-0.4-0.8c0-0.2,0-0.3,0.1-0.5l4.6-9.6c0.1-0.3,0.3-0.5,0.6-0.6
	C44.5,4,44.7,3.9,45,3.9c0.3,0,0.6,0.1,0.8,0.2c0.2,0.1,0.4,0.4,0.6,0.6L51,14.4z M43.1,11.3h4l-2-4.4L43.1,11.3z M34.9,16.1
	c-0.4,0-0.7-0.1-1-0.4c-0.2-0.2-0.4-0.6-0.4-1V6.2h-2.8c-0.8,0-1.3-0.4-1.3-1.1C29.5,4.4,30,4,30.8,4H39c0.8,0,1.3,0.4,1.3,1.1
	c0,0.7-0.4,1.1-1.3,1.1h-2.8v8.6c0,0.4-0.1,0.7-0.4,1C35.6,16,35.3,16.1,34.9,16.1z M53,15.7c0.2,0.2,0.6,0.4,1,0.4
	c0.4,0,0.7-0.1,1-0.4s0.4-0.6,0.4-1v-3.3h2.9c1.3,0,2.3-0.3,3-1c0.7-0.7,1.1-1.6,1.1-2.8c0-1.2-0.4-2.1-1.1-2.8c-0.7-0.7-1.7-1-3-1
	h-4.3c-0.4,0-0.7,0.1-0.9,0.3c-0.2,0.2-0.3,0.5-0.3,0.9v9.5C52.6,15.2,52.7,15.5,53,15.7z M59.8,7.8c0,1.1-0.7,1.7-2,1.7h-2.5V6h2.5
	C59.1,6,59.8,6.6,59.8,7.8z M75.4,15.7c0.2,0.2,0.6,0.4,1,0.4c0.4,0,0.7-0.1,1-0.4c0.2-0.2,0.4-0.6,0.4-1V5.2c0-0.4-0.1-0.7-0.4-1
	c-0.2-0.2-0.6-0.4-1-0.4c-0.4,0-0.7,0.1-1,0.4S75,4.8,75,5.2v9.5C75,15.2,75.1,15.5,75.4,15.7z"/>
<g>
	<path class="st1" d="M12.8,5.9l-1.6,1.5C10.2,6.3,9,5.7,7.7,5.7c-1.1,0-2.1,0.4-2.8,1.2C4,7.7,3.7,8.6,3.7,9.7
		c0,0.8,0.2,1.5,0.5,2.1c0.3,0.6,0.8,1.1,1.5,1.4c0.6,0.3,1.3,0.5,2.1,0.5c0.7,0,1.2-0.1,1.8-0.4c0.5-0.2,1.1-0.7,1.8-1.3l1.5,1.6
		c-0.9,0.9-1.7,1.4-2.5,1.8c-0.8,0.3-1.7,0.5-2.7,0.5c-1.8,0-3.3-0.6-4.5-1.7C2,13,1.4,11.5,1.4,9.7c0-1.2,0.3-2.2,0.8-3.1
		c0.5-0.9,1.3-1.6,2.3-2.2c1-0.6,2.1-0.8,3.2-0.8c1,0,1.9,0.2,2.8,0.6C11.4,4.6,12.2,5.2,12.8,5.9z"/>
	<path class="st1" d="M14.8,15.6V3.9h1.9c1.1,0,1.9,0.1,2.4,0.2c0.7,0.2,1.3,0.5,1.7,1c0.4,0.5,0.6,1.1,0.6,1.8
		c0,0.4-0.1,0.9-0.3,1.2c-0.2,0.4-0.5,0.7-0.9,1c0.7,0.3,1.2,0.8,1.6,1.3c0.3,0.5,0.5,1.1,0.5,1.8c0,0.7-0.2,1.3-0.5,1.8
		c-0.3,0.5-0.8,1-1.3,1.2c-0.5,0.3-1.3,0.4-2.2,0.4H14.8z M17.1,6v2.5h0.5c0.5,0,1-0.1,1.2-0.3c0.3-0.2,0.4-0.5,0.4-0.9
		c0-0.4-0.1-0.7-0.4-0.9S18.1,6,17.6,6H17.1z M17.1,10.5v3h0.6c0.9,0,1.6-0.1,1.9-0.4c0.3-0.2,0.5-0.6,0.5-1c0-0.5-0.2-0.9-0.6-1.2
		c-0.4-0.3-1-0.4-1.9-0.4H17.1z"/>
	<path class="st1" d="M24.3,3.9h6.4V6h-4.2v2.1h4.2v2.2h-4.2v3.1h4.2v2.2h-6.4V3.9z"/>
	<path class="st1" d="M33,3.9h2.4c1.3,0,2.2,0.1,2.8,0.3c0.6,0.2,1,0.6,1.3,1.2C39.9,5.9,40,6.5,40,7.3c0,0.8-0.2,1.4-0.6,1.9
		c-0.4,0.5-0.9,0.9-1.7,1.2l2.8,5.2h-2.5l-2.7-5h-0.2v5H33V3.9z M35.3,8.5H36c0.7,0,1.2-0.1,1.5-0.3c0.3-0.2,0.4-0.5,0.4-0.9
		c0-0.3-0.1-0.5-0.2-0.7c-0.1-0.2-0.3-0.3-0.5-0.4C36.9,6.1,36.5,6,35.9,6h-0.6V8.5z"/>
	<path class="st1" d="M42.6,3.9h2.4c1.3,0,2.2,0.1,2.8,0.3c0.6,0.2,1,0.6,1.3,1.2c0.3,0.5,0.5,1.2,0.5,1.9c0,0.8-0.2,1.4-0.6,1.9
		c-0.4,0.5-0.9,0.9-1.7,1.2l2.8,5.2h-2.5l-2.7-5h-0.2v5h-2.2V3.9z M44.8,8.5h0.7c0.7,0,1.2-0.1,1.5-0.3c0.3-0.2,0.4-0.5,0.4-0.9
		c0-0.3-0.1-0.5-0.2-0.7c-0.1-0.2-0.3-0.3-0.5-0.4C46.4,6.1,46,6,45.4,6h-0.6V8.5z"/>
	<path class="st1" d="M51.8,3.9H54v11.8h-2.2V3.9z"/>
	<path class="st1" d="M62.1,3.6c1.7,0,3.1,0.6,4.3,1.8c1.2,1.2,1.8,2.7,1.8,4.4c0,1.7-0.6,3.2-1.8,4.4c-1.2,1.2-2.6,1.8-4.3,1.8
		c-1.8,0-3.2-0.6-4.4-1.8c-1.2-1.2-1.8-2.7-1.8-4.4c0-1.1,0.3-2.2,0.8-3.1c0.5-0.9,1.3-1.7,2.3-2.2C60,3.8,61,3.6,62.1,3.6z
		 M62.1,5.8c-1.1,0-2,0.4-2.8,1.1c-0.7,0.8-1.1,1.7-1.1,2.9c0,1.3,0.5,2.3,1.4,3.1c0.7,0.6,1.6,0.9,2.5,0.9c1.1,0,2-0.4,2.7-1.2
		c0.7-0.8,1.1-1.7,1.1-2.8c0-1.1-0.4-2.1-1.1-2.9C64.1,6.1,63.1,5.8,62.1,5.8z"/>
	<path class="st1" d="M76.5,5.5l-1.7,1.5c-0.6-0.8-1.2-1.2-1.8-1.2c-0.3,0-0.5,0.1-0.7,0.2c-0.2,0.2-0.3,0.3-0.3,0.5
		c0,0.2,0.1,0.4,0.2,0.6c0.2,0.2,0.7,0.7,1.6,1.5c0.9,0.7,1.4,1.2,1.6,1.4c0.5,0.5,0.8,0.9,1,1.3c0.2,0.4,0.3,0.9,0.3,1.4
		c0,1-0.3,1.8-1,2.4c-0.7,0.6-1.5,0.9-2.6,0.9c-0.8,0-1.6-0.2-2.2-0.6c-0.6-0.4-1.2-1.1-1.6-1.9l1.9-1.1c0.6,1,1.2,1.6,2,1.6
		c0.4,0,0.7-0.1,1-0.3c0.3-0.2,0.4-0.5,0.4-0.8c0-0.3-0.1-0.5-0.3-0.8c-0.2-0.3-0.6-0.7-1.3-1.2c-1.3-1-2.1-1.9-2.5-2.4
		c-0.4-0.6-0.6-1.1-0.6-1.7c0-0.8,0.3-1.5,0.9-2.1c0.6-0.6,1.4-0.9,2.3-0.9c0.6,0,1.1,0.1,1.7,0.4C75.3,4.2,75.9,4.7,76.5,5.5z"/>
</g>
</svg>
